<svg width="1920" height="925" viewBox="0 0 1920 925" fill="none" xmlns="http://www.w3.org/2000/svg">
<g clip-path="url(#clip0_11_8)">
<path d="M1443.61 458.658C1452.08 479.536 1475.86 489.542 1496.72 481.006C1517.58 472.456 1527.63 448.603 1519.16 427.724C1510.7 406.837 1486.91 396.836 1466.06 405.368C1445.19 413.913 1435.14 437.775 1443.61 458.658ZM1559.56 482.989C1563.13 471.66 1564.06 459.668 1561.61 448.05L1553.44 409.497C1549.23 389.616 1537.83 371.818 1521.03 360.433C1517.03 357.73 1513.28 354.542 1509.84 350.873C1484.07 323.374 1486.26 279.648 1515.26 254.765C1541.14 232.553 1580.13 233.741 1604.51 257.465C1637.37 289.412 1622.07 325.211 1608.77 344.769C1601.3 355.75 1598.72 369.324 1601.47 382.303L1608.36 414.849C1612.65 435.124 1635.17 445.536 1653.4 435.691L1674.55 424.264C1699.43 410.812 1717.35 387.639 1725.26 360.446C1729.29 346.615 1736.96 333.641 1748.21 323.051C1782.19 291.072 1835.82 293.172 1867.01 328.092C1895.95 360.49 1893.92 413.307 1862.58 443.553C1839.88 465.471 1808.08 471.889 1780.12 463.183C1753.27 454.834 1724.21 457.233 1699.42 470.632L1659.28 492.322C1648.65 498.062 1639.57 506.373 1633.24 516.664C1631.38 519.696 1629.1 522.513 1626.4 525.058C1614.47 536.281 1597.62 538.952 1583.39 533.324L1579.25 531.402C1575.41 529.359 1571.82 526.672 1568.68 523.319C1558.22 512.163 1555.25 496.651 1559.56 482.989Z" fill="url(#paint0_linear_11_8)"/>
<path d="M2172.07 562.36C2180.53 583.238 2204.31 593.244 2225.18 584.699C2246.03 576.167 2256.08 552.305 2247.61 531.426C2239.14 510.535 2215.37 500.533 2194.51 509.078C2173.64 517.615 2163.6 541.468 2172.07 562.36ZM2137.64 506.219C2133.49 517.351 2131.96 529.291 2133.81 541.016L2140 579.946C2143.19 600.023 2153.66 618.383 2169.86 630.609C2173.71 633.518 2177.3 636.899 2180.54 640.74C2204.87 669.522 2200.45 713.083 2170.23 736.448C2143.26 757.309 2104.38 754.121 2081.23 729.185C2050.06 695.599 2067.15 660.618 2081.44 641.762C2089.46 631.18 2092.74 617.749 2090.65 604.648L2085.44 571.782C2082.18 551.319 2060.23 539.751 2041.52 548.653L2019.83 558.986C1994.29 571.139 1975.21 593.386 1965.93 620.129C1961.19 633.745 1952.88 646.298 1941.11 656.3C1905.54 686.507 1852.09 681.665 1822.73 645.186C1795.48 611.336 1800.21 558.691 1833.04 530.086C1856.84 509.345 1888.91 504.579 1916.4 514.696C1942.78 524.42 1971.92 523.515 1997.36 511.399L2038.55 491.794C2049.45 486.613 2058.93 478.769 2065.79 468.805C2067.8 465.892 2070.22 463.186 2073.05 460.787C2085.53 450.19 2102.49 448.371 2116.41 454.731L2120.46 456.854C2124.18 459.102 2127.63 461.969 2130.59 465.479C2140.47 477.164 2142.64 492.803 2137.64 506.219Z" fill="url(#paint1_linear_11_8)"/>
<path d="M259.514 299.105C237.481 294.395 215.856 308.459 211.211 330.519C206.58 352.582 220.685 374.284 242.717 378.994C264.754 383.712 286.383 369.635 291.024 347.588C295.664 325.52 281.554 303.81 259.514 299.105ZM174.303 381.416C181.678 390.726 191.08 398.227 202.072 402.718L238.564 417.595C257.382 425.269 278.51 425.822 297.361 418.308C301.844 416.515 306.59 415.196 311.554 414.412C348.776 408.517 383.738 434.868 388.062 472.829C391.922 506.715 369.053 538.323 335.733 545.19C290.851 554.456 269.808 521.703 261.088 499.713C256.187 487.374 246.401 477.62 234.115 472.612L203.314 460.046C184.127 452.215 162.866 465.016 160.783 485.631L158.372 509.546C155.542 537.689 164.666 565.525 182.731 587.336C191.919 598.432 198.355 612.056 200.806 627.31C208.205 673.382 176.365 716.594 129.958 722.811C86.9014 728.583 44.3296 697.255 36.8813 654.347C31.4836 623.252 44.0138 593.337 66.9146 575.078C88.8925 557.542 103.215 532.144 106.039 504.106L110.614 458.711C111.829 446.692 110.047 434.511 105.083 423.496C103.615 420.257 102.563 416.79 101.975 413.121C99.3774 396.956 106.623 381.51 119.271 372.887L123.186 370.537C127.03 368.508 131.268 367.046 135.804 366.331C150.908 363.936 165.415 370.18 174.303 381.416Z" fill="url(#paint2_linear_11_8)"/>
<path d="M1808.09 38.9595C1804.75 47.3194 1808.82 56.7879 1817.2 60.108C1825.58 63.4232 1835.08 59.3341 1838.42 50.9742C1841.77 42.6129 1837.69 33.1421 1829.32 29.8243C1820.94 26.5055 1811.43 30.5959 1808.09 38.9595ZM1834.75 78.0853C1838.92 75.8097 1842.51 72.6132 1845.02 68.5869L1853.35 55.2185C1857.64 48.3251 1859.29 40.0402 1857.6 32.1073C1857.2 30.2205 1857 28.2621 1857.03 26.2536C1857.22 11.1941 1869.96 -0.796365 1885.21 0.065717C1898.81 0.83558 1909.72 11.9791 1910.17 25.5677C1910.79 43.8722 1896.46 49.9475 1887.21 51.896C1882.02 52.9926 1877.52 56.1883 1874.72 60.689L1867.68 71.972C1863.3 79.0004 1866.91 88.2397 1874.89 90.4532L1884.15 93.0191C1895.04 96.0356 1906.62 94.3232 1916.43 88.6812C1921.42 85.8122 1927.22 84.1977 1933.4 84.2631C1952.05 84.4624 1966.92 99.9238 1966.23 118.623C1965.59 135.973 1950.37 150.624 1932.97 150.658C1920.36 150.683 1909.42 143.726 1903.78 133.472C1898.35 123.63 1889.32 116.272 1878.47 113.265L1860.89 108.395C1856.24 107.104 1851.32 106.983 1846.65 108.194C1845.28 108.553 1843.84 108.733 1842.35 108.717C1835.81 108.648 1830.22 104.75 1827.67 99.1855L1827.01 97.4845C1826.47 95.8333 1826.18 94.0651 1826.21 92.2304C1826.29 86.1192 1829.73 80.827 1834.75 78.0853Z" fill="url(#paint3_linear_11_8)"/>
<path d="M1989.22 270.609C1985.87 278.968 1989.95 288.437 1998.33 291.756C2006.7 295.074 2016.21 290.983 2019.55 282.623C2022.9 274.258 2018.82 264.794 2010.44 261.475C2002.07 258.155 1992.57 262.244 1989.22 270.609ZM1994.85 244.899C1990.57 246.957 1986.82 249.973 1984.11 253.864L1975.11 266.793C1970.47 273.46 1968.4 281.65 1969.68 289.659C1969.98 291.562 1970.08 293.532 1969.95 295.534C1968.98 310.565 1955.65 321.89 1940.47 320.253C1926.92 318.79 1916.6 307.103 1916.84 293.507C1917.16 275.197 1931.78 269.855 1941.12 268.381C1946.36 267.554 1951.02 264.592 1954.05 260.239L1961.65 249.327C1966.38 242.532 1963.26 233.117 1955.41 230.5L1946.3 227.468C1935.57 223.894 1923.92 225.021 1913.83 230.153C1908.7 232.762 1902.82 234.077 1896.66 233.698C1878.05 232.547 1863.99 216.348 1865.64 197.707C1867.17 180.408 1883.11 166.551 1900.49 167.403C1913.09 168.021 1923.65 175.53 1928.77 186.061C1933.67 196.168 1942.32 203.979 1953 207.535L1970.3 213.297C1974.87 214.823 1979.78 215.191 1984.51 214.218C1985.9 213.937 1987.35 213.827 1988.83 213.92C1995.36 214.324 2000.75 218.498 2003 224.187L2003.58 225.919C2004.03 227.599 2004.23 229.38 2004.1 231.209C2003.71 237.312 2000.01 242.419 1994.85 244.899Z" fill="url(#paint4_linear_11_8)"/>
</g>
<defs>
<linearGradient id="paint0_linear_11_8" x1="1430.64" y1="416.523" x2="2201.57" y2="627.602" gradientUnits="userSpaceOnUse">
<stop stop-color="white" stop-opacity="0.652873"/>
<stop offset="0.403152" stop-color="#C7C7C7" stop-opacity="0.779455"/>
<stop offset="0.541007" stop-color="#EBEBEB" stop-opacity="0.692871"/>
<stop offset="0.819808" stop-color="#A4A4A4" stop-opacity="0.645026"/>
<stop offset="1" stop-opacity="0"/>
</linearGradient>
<linearGradient id="paint1_linear_11_8" x1="1430.64" y1="416.523" x2="2201.57" y2="627.602" gradientUnits="userSpaceOnUse">
<stop stop-color="white" stop-opacity="0.652873"/>
<stop offset="0.403152" stop-color="#C7C7C7" stop-opacity="0.779455"/>
<stop offset="0.541007" stop-color="#EBEBEB" stop-opacity="0.692871"/>
<stop offset="0.819808" stop-color="#A4A4A4" stop-opacity="0.645026"/>
<stop offset="1" stop-opacity="0"/>
</linearGradient>
<linearGradient id="paint2_linear_11_8" x1="301.667" y1="312.016" x2="-305.696" y2="831.62" gradientUnits="userSpaceOnUse">
<stop stop-color="white" stop-opacity="0.652873"/>
<stop offset="0.403152" stop-color="#C7C7C7" stop-opacity="0.779455"/>
<stop offset="0.541007" stop-color="#EBEBEB" stop-opacity="0.692871"/>
<stop offset="0.819808" stop-color="#A4A4A4" stop-opacity="0.645026"/>
<stop offset="1" stop-opacity="0"/>
</linearGradient>
<linearGradient id="paint3_linear_11_8" x1="1816.02" y1="23.2283" x2="1979.65" y2="297.575" gradientUnits="userSpaceOnUse">
<stop stop-color="white" stop-opacity="0.652873"/>
<stop offset="0.403152" stop-color="#C7C7C7" stop-opacity="0.779455"/>
<stop offset="0.541007" stop-color="#EBEBEB" stop-opacity="0.692871"/>
<stop offset="0.819808" stop-color="#A4A4A4" stop-opacity="0.645026"/>
<stop offset="1" stop-opacity="0"/>
</linearGradient>
<linearGradient id="paint4_linear_11_8" x1="1816.02" y1="23.2282" x2="1979.65" y2="297.575" gradientUnits="userSpaceOnUse">
<stop stop-color="white" stop-opacity="0.652873"/>
<stop offset="0.403152" stop-color="#C7C7C7" stop-opacity="0.779455"/>
<stop offset="0.541007" stop-color="#EBEBEB" stop-opacity="0.692871"/>
<stop offset="0.819808" stop-color="#A4A4A4" stop-opacity="0.645026"/>
<stop offset="1" stop-opacity="0"/>
</linearGradient>
<clipPath id="clip0_11_8">
<rect width="1920" height="925" fill="white"/>
</clipPath>
</defs>
</svg>
